<svg xmlns="http://www.w3.org/2000/svg" viewBox="555 115 310 540">
  <!-- All-rounder: bat + ball - vectorized silhouette -->
  <path d="M 683.582,311.396 C 684.603,314.659 684.880,346.874 684.933,468.569 C 684.991,601.164 684.802,622.296 683.516,626.568 C 681.276,634.009 675.494,640.927 668.542,644.482 C 666.575,645.488 664.608,646.494 662.641,647.500 C 649.284,647.500 635.928,647.500 622.571,647.500 C 583.751,647.500 582.356,647.434 577.878,645.363 C 571.243,642.295 565.483,636.681 562.281,630.161 C 561.354,628.274 560.427,626.387 559.500,624.500 C 559.500,572.667 559.500,520.833 559.500,469 C 559.500,417.167 559.500,365.333 559.500,313.500 C 560.423,311.620 561.347,309.738 562.270,307.858 C 565.980,300.304 572.276,294.646 579.504,292.367 C 585.974,290.328 587.056,289.076 590.872,279.219 C 591.739,276.979 592.607,274.740 593.474,272.500 C 593.645,249.833 593.816,227.167 593.987,204.500 C 594.559,128.743 594.051,133.931 601.613,126.587 C 606.664,121.682 610.801,120.515 623,120.556 C 634.881,120.596 639.491,122.234 644.526,128.206 C 650.302,135.057 650.121,132.719 650.427,204.391 C 650.732,275.701 650.669,274.812 656.178,285.753 C 658.125,289.619 659.180,290.558 662.714,291.566 C 672.805,294.444 680.592,301.843 683.582,311.396 ZM 565.658,311.243 C 564.329,314.981 564.166,334.310 564.322,470 C 564.381,521.500 564.441,573 564.500,624.500 C 565.236,625.876 565.972,627.252 566.708,628.628 C 569.575,633.988 576.837,640.335 581.807,641.824 C 584.518,642.636 597.295,642.993 623.116,642.978 C 658.561,642.957 660.733,642.850 665,640.919 C 670.884,638.255 674.609,634.633 677.706,628.561 C 678.546,626.915 679.385,625.269 680.225,623.623 C 680.174,572.269 680.122,520.915 680.071,469.561 C 679.961,359.233 679.600,314.433 678.798,311.742 C 676.528,304.120 668.179,297.044 659.273,295.194 C 654.925,294.291 652.424,290.674 648.767,280 C 646.573,273.597 646.532,272.497 646.020,206 C 645.434,129.913 645.825,133.563 637.671,128.161 C 634.104,125.798 632.514,125.463 623.458,125.163 C 614.687,124.873 612.693,125.116 609.189,126.904 C 605.300,128.888 601.324,133.194 599.404,137.500 C 598.914,138.600 598.284,169.875 598.006,207 C 597.837,229.500 597.669,252 597.500,274.500 C 596.589,276.996 595.678,279.492 594.767,281.988 C 591.015,292.269 589.574,293.906 582.300,296.139 C 574.906,298.409 567.989,304.687 565.658,311.243 Z" fill="currentColor" stroke="none"/>
  <path d="M 669.037,317.275 C 669.463,319.049 669.742,388.225 669.656,471 C 669.511,611.469 669.385,621.710 667.774,624.653 C 666.825,626.387 664.522,628.750 662.656,629.903 C 659.372,631.933 658.088,632 622.382,631.996 C 587.343,631.992 585.337,631.893 582.241,630.005 C 580.448,628.912 578.088,626.552 576.995,624.759 C 575.035,621.545 575.007,619.410 575.007,469 C 575.007,318.590 575.035,316.456 576.995,313.241 C 580.971,306.720 583.617,305.948 601,306.240 C 606.167,306.327 611.333,306.413 616.500,306.500 C 616.586,323.136 616.673,339.773 616.759,356.409 C 616.940,391.236 617.355,406.723 618.132,407.659 C 619.910,409.801 624.680,409.295 626.443,406.777 C 627.801,404.838 628,398.259 628,355.277 C 628,338.851 628,322.426 628,306 C 633.033,306 638.066,306 643.099,306 C 662.728,306 666.750,307.748 669.037,317.275 ZM 580.507,316.213 C 579.291,319.012 579.072,341.688 579.039,468.849 C 578.996,634.408 578.534,623.128 585.478,626.423 C 588.306,627.765 593.963,628 623.385,628 C 634.913,628 646.440,628 657.968,628 C 659.057,627.027 660.145,626.055 661.234,625.082 C 662.323,624.109 663.411,623.137 664.500,622.164 C 664.587,571.416 664.673,520.669 664.760,469.921 C 665.046,302.400 665.500,314.861 658.979,311.489 C 656.657,310.288 653.318,310 644.238,310.218 C 640.325,310.312 636.413,310.406 632.500,310.500 C 632.333,326.946 632.167,343.391 632,359.837 C 631.833,376.283 631.667,392.728 631.500,409.174 C 630.565,409.978 629.629,410.783 628.694,411.587 C 624.736,414.990 619.931,414.803 615.766,411.083 C 614.677,410.111 613.589,409.137 612.500,408.165 C 612.408,391.804 612.315,375.444 612.223,359.083 C 612.130,342.722 612.037,326.361 611.945,310 C 608.110,310 604.275,310 600.440,310 C 586.790,310 582.645,311.293 580.507,316.213 Z" fill="currentColor" stroke="none"/>
  <path d="M 859,508.512 C 860.246,515.400 859.421,533.259 857.522,540.500 C 855.321,548.892 848.877,562.011 843.567,568.912 C 829.477,587.223 809.269,597.692 786,598.736 C 762.437,599.793 743.402,592.474 726.964,576.036 C 711.304,560.376 704.463,543.580 704.546,521 C 704.601,506.042 706.161,499.233 712.444,486.500 C 722.386,466.355 739.747,452.017 761.708,445.817 C 771.850,442.954 791.192,442.694 801,445.290 C 815.203,449.049 832.700,459.987 841.449,470.577 C 849.805,480.691 856.640,495.465 859,508.512 ZM 710.547,503.808 C 708.660,511.591 708.661,529.926 710.550,538 C 711.386,541.575 714.138,548.760 716.664,553.968 C 720.565,562.010 722.631,564.809 730.378,572.553 C 738.069,580.240 740.990,582.402 749,586.334 C 761.638,592.538 769.082,594.363 782,594.425 C 793.083,594.478 799.538,593.267 809.283,589.307 C 830.716,580.598 848.204,560.037 853.567,537.243 C 857.282,521.450 854.037,499.573 845.856,485.255 C 826.182,450.824 783.915,438.215 748.218,456.128 C 730.321,465.109 715.331,484.082 710.547,503.808 Z" fill="currentColor" stroke="none"/>
  <path d="M 844.507,508.026 C 846.311,515.957 845.790,531.109 843.443,539 C 835.891,564.393 812.641,583.051 786.498,584.697 C 773.781,585.498 764.665,583.736 754.131,578.440 C 744.818,573.758 735.205,566.095 736.341,564.257 C 736.722,563.640 739.541,562.615 742.603,561.979 C 772.846,555.700 797.932,535.909 810.715,508.241 C 814.449,500.158 819,483.798 819,478.454 C 819,474.291 819.868,472 821.448,472 C 822.127,472 825.459,474.890 828.851,478.423 C 835.877,485.740 842.125,497.554 844.507,508.026 ZM 755.290,563.229 C 749.639,565.028 745.012,566.791 745.008,567.146 C 745.004,567.501 747.185,569.194 749.855,570.907 C 777.876,588.888 813.703,580.965 832.076,552.723 C 837.692,544.091 840.121,536.145 840.702,524.500 C 841.273,513.065 839.641,504.212 835.402,495.741 C 832.456,489.854 825.378,480 824.096,480 C 823.635,480 822.953,482.295 822.581,485.099 C 820.693,499.332 811.918,518.692 801.423,531.778 C 790.098,545.899 772.903,557.622 755.290,563.229 Z" fill="currentColor" stroke="none"/>
  <path d="M 803.596,461.122 C 805.397,461.796 807.199,462.470 809,463.144 C 808.998,465.703 808.995,468.263 808.993,470.822 C 808.989,475.045 808.097,482.207 807.011,486.737 C 800.615,513.417 782.973,534.976 758.432,546.104 C 750.839,549.547 737.292,552.983 731.273,552.993 C 726.171,553.001 725.291,551.889 721.386,540.500 C 719.016,533.586 718.645,530.938 718.651,521 C 718.657,511.009 719.030,508.404 721.495,501.148 C 731.465,471.803 759.654,453.971 789.746,457.976 C 794.392,458.594 800.624,460.010 803.596,461.122 ZM 724.532,506.645 C 722.359,515.301 723.032,531.699 725.901,540 C 729.050,549.113 729.080,549.131 738.022,547.564 C 754.514,544.674 767.788,537.430 781.148,524.026 C 789.710,515.436 791.360,513.173 795.814,503.923 C 801.470,492.177 803.813,483.712 804.221,473.554 C 804.314,471.239 804.407,468.924 804.500,466.609 C 802.833,465.967 801.167,465.324 799.500,464.682 C 792.384,461.940 777.491,461.329 768.613,463.416 C 747.965,468.269 729.658,486.222 724.532,506.645 Z" fill="currentColor" stroke="none"/>
  <path d="M 639.949,286.414 C 640.984,288.661 641.870,291.513 641.916,292.750 C 641.944,293.500 641.972,294.250 642,295 C 635.520,295 629.039,295 622.559,295 C 609.930,295 602.888,294.628 602.462,293.939 C 602.101,293.355 602.751,290.684 603.904,288.003 C 608.777,276.676 609,273.100 609,206.584 C 609,142.337 609.191,139.038 613.039,136.979 C 614.045,136.441 618.294,136 622.480,136 C 629.228,136 630.369,136.279 632.545,138.455 C 633.363,139.273 634.182,140.091 635,140.909 C 635,161.547 635,182.186 635,202.824 C 635,268.552 635.483,276.718 639.949,286.414 ZM 610.144,283.827 C 609.568,285.718 608.991,287.609 608.415,289.500 C 613.012,289.592 617.611,289.685 622.208,289.777 C 626.805,289.869 631.403,289.963 636,290.055 C 635.996,289.963 635.991,289.869 635.987,289.777 C 635.980,289.624 634.977,286.575 633.758,283 C 631.579,276.609 631.533,275.373 631.021,209.213 C 630.569,150.875 630.300,141.800 629,140.978 C 626.844,139.616 616.620,139.780 615.200,141.200 C 614.293,142.107 614,157.118 614,202.628 C 614,263.649 613.577,272.559 610.144,283.827 Z" fill="currentColor" stroke="none"/>
</svg>
