<svg xmlns="http://www.w3.org/2000/svg" viewBox="0 0 24 24" fill="none" stroke="currentColor" stroke-width="1.5" stroke-linecap="round" stroke-linejoin="round">
  <!-- Handle grip -->
  <path d="M4 21l2.5-2.5"/>
  <!-- Handle -->
  <path d="M6.5 18.5l2-2"/>
  <!-- Grip texture -->
  <line x1="5" y1="20" x2="5.5" y2="19.5" stroke-width="1" stroke-opacity="0.5"/>
  <line x1="5.5" y1="19.5" x2="6" y2="19" stroke-width="1" stroke-opacity="0.5"/>
  <!-- Blade -->
  <path d="M8.5 16.5l8-8c.8-.8 1.8-1.2 2.8-1.2h.2c.6 0 1 .4 1 1v.2c0 1-.4 2-1.2 2.8l-8 8z" fill="currentColor" fill-opacity="0.06"/>
  <path d="M8.5 16.5l8-8c.8-.8 1.8-1.2 2.8-1.2h.2c.6 0 1 .4 1 1v.2c0 1-.4 2-1.2 2.8l-8 8z"/>
  <!-- Blade spine -->
  <line x1="12" y1="13" x2="17" y2="8" stroke-opacity="0.25" stroke-width="1"/>
</svg>
