<svg xmlns="http://www.w3.org/2000/svg" viewBox="640 100 128 568">
  <!-- Cricket bat - vectorized silhouette -->
  <path d="M 761.458,311.949 C 762.635,315.769 762.872,341.922 762.930,474.645 C 762.999,630.667 762.973,632.877 760.977,639.339 C 758.286,648.051 751.557,655.548 742.792,659.595 C 740.695,660.563 738.597,661.532 736.500,662.500 C 725.667,662.500 714.833,662.500 704,662.500 C 693.167,662.500 682.333,662.500 671.500,662.500 C 669.608,661.613 667.717,660.727 665.825,659.840 C 657.862,656.107 651.821,650.186 648.385,642.747 C 647.423,640.664 646.462,638.583 645.500,636.500 C 645.412,583.353 645.323,530.205 645.235,477.058 C 644.937,297.562 644.402,310.545 652.424,302.523 C 655.325,299.622 658.833,297.439 663.085,295.889 C 670.737,293.099 675.993,288.182 678.579,281.393 C 680.324,276.811 680.476,271.377 680.971,195.822 C 681.496,115.779 681.517,115.122 683.605,112.322 C 687.087,107.653 691.080,105.967 700.166,105.330 C 714.581,104.320 721.926,106.992 725.878,114.684 C 726.677,116.240 727.009,138.396 727.031,191.684 C 727.049,234.084 727.482,269.743 728.033,273.986 C 729.562,285.767 732.334,289.444 743.962,295.113 C 754.623,300.310 759.240,304.754 761.458,311.949 ZM 658.956,313.304 C 657.046,316.436 657.007,319.645 657.009,474 C 657.010,582.827 657.341,632.692 658.081,635.355 C 659.634,640.946 666.135,647.552 672.003,649.501 C 676.116,650.867 681.321,651.066 706.258,650.806 C 716.060,650.704 725.860,650.602 735.662,650.500 C 737.287,649.495 738.912,648.490 740.537,647.485 C 744.089,645.288 746.173,643.013 748.215,639.103 C 749.149,637.314 750.084,635.526 751.018,633.737 C 750.932,580.469 750.845,527.202 750.759,473.934 C 750.673,420.666 750.586,367.399 750.500,314.131 C 749.514,313.102 748.528,312.072 747.542,311.043 C 745.915,309.345 742.939,307.463 740.930,306.861 C 737.527,305.841 736.822,306.041 730.603,309.792 C 726.932,312.006 721.582,314.348 718.714,314.996 C 715.846,315.644 712.713,316.391 711.750,316.655 C 710.138,317.097 710,319.290 710,344.567 C 710,370.666 709.903,372.097 708,374 C 706.900,375.100 705.100,376 704,376 C 702.900,376 701.100,375.100 700,374 C 698.097,372.097 698,370.667 698,344.519 C 698,335.359 698,326.198 698,317.038 C 697.083,316.836 696.167,316.634 695.250,316.432 C 686.664,314.539 681.635,312.619 676.883,309.421 C 672.680,306.592 670.932,305.964 668.582,306.434 C 664.451,307.260 661.248,309.546 658.956,313.304 ZM 683.996,295.732 C 682.284,297.909 682.156,298.585 683.251,299.680 C 686.040,302.469 696.364,305.230 704,305.230 C 709.089,305.230 713.418,304.551 717.464,303.116 C 726.440,299.933 726.752,299.319 722.562,293.092 C 718.610,287.219 716,279.554 716,273.819 C 716,272.546 716,271.273 716,270 C 712.046,270 708.093,270 704.139,270 C 700.185,270 696.232,270 692.278,270 C 692.098,271.980 691.919,273.961 691.739,275.941 C 691.185,282.048 687.648,291.089 683.996,295.732 ZM 693.829,118.655 C 692.282,120.055 692,121.903 692,130.655 C 692,134.103 692,137.552 692,141 C 696,141 700,141 704,141 C 708,141 712,141 716,141 C 716,137.524 716,134.047 716,130.571 C 716,117.219 715.810,117 704.257,117 C 697.658,117 695.232,117.385 693.829,118.655 ZM 704,153 C 700,153 696,153 692,153 C 692,154.833 692,156.667 692,158.500 C 692,160.333 692,162.167 692,164 C 696,164 700,164 704,164 C 708,164 712,164 716,164 C 716,162.167 716,160.333 716,158.500 C 716,156.667 716,154.833 716,153 C 712,153 708,153 704,153 ZM 704,176 C 700,176 696,176 692,176 C 692,178 692,180 692,182 C 692,184 692,186 692,188 C 696,188 700,188 704,188 C 708,188 712,188 716,188 C 716,186 716,184 716,182 C 716,180 716,178 716,176 C 712,176 708,176 704,176 ZM 704,200 C 699.967,200 695.933,200 691.900,200 C 692,201.917 692.100,203.833 692.200,205.750 C 692.300,207.667 692.400,209.583 692.500,211.500 C 696.333,211.500 700.167,211.500 704,211.500 C 707.833,211.500 711.667,211.500 715.500,211.500 C 715.600,209.583 715.700,207.667 715.800,205.750 C 715.900,203.833 716,201.917 716.100,200 C 712.067,200 708.033,200 704,200 ZM 704,223 C 700,223 696,223 692,223 C 692,225 692,227 692,229 C 692,231 692,233 692,235 C 696,235 700,235 704,235 C 708,235 712,235 716,235 C 716,233 716,231 716,229 C 716,227 716,225 716,223 C 712,223 708,223 704,223 ZM 704,247 C 699.967,247 695.933,247 691.900,247 C 692,248.917 692.100,250.833 692.200,252.750 C 692.300,254.667 692.400,256.583 692.500,258.500 C 696.333,258.500 700.167,258.500 704,258.500 C 707.833,258.500 711.667,258.500 715.500,258.500 C 715.600,256.583 715.700,254.667 715.800,252.750 C 715.900,250.833 716,248.917 716.100,247 C 712.067,247 708.033,247 704,247 Z" fill="currentColor" stroke="none"/>
</svg>
