<svg xmlns="http://www.w3.org/2000/svg" viewBox="455 125 505 520">
  <!-- Cricket ball - vectorized silhouette -->
  <path d="M 954.976,361.500 C 956.881,382.843 954.761,414.103 949.869,436.817 C 942.900,469.175 927.771,503.565 908.657,530.500 C 857.217,602.987 774.763,643.371 689.266,637.952 C 643.356,635.042 598.292,619.088 561.500,592.720 C 510.433,556.121 473.970,502.153 459.513,441.773 C 443.157,373.464 456.763,295.918 495.150,238.655 C 534.195,180.411 592.333,141.207 657.599,129.113 C 710.754,119.263 764.346,126.457 812.500,149.909 C 893.587,189.399 946.650,268.203 954.976,361.500 ZM 464.105,363 C 462.623,379.972 463.205,400.363 465.600,415.375 C 465.806,416.667 466.012,417.958 466.218,419.250 C 467.969,419.044 469.721,418.838 471.472,418.632 C 483.799,417.183 506.521,409.180 528.878,398.411 C 565.628,380.710 601.177,357.953 648,322.155 C 714.890,271.015 768.901,218.847 793.217,181.893 C 799.573,172.234 806,160.870 806,159.291 C 806,157.963 789.778,151.260 775.500,146.688 C 762.275,142.453 744.033,138.529 730.789,137.070 C 716.771,135.526 688.433,135.756 673.970,137.531 C 643.156,141.313 610.929,152.332 583.544,168.449 C 561.619,181.352 534.162,205.262 518.028,225.500 C 487.366,263.962 468.569,311.895 464.105,363 ZM 475.234,429.038 C 469.427,430.068 468.058,430.645 468.413,431.913 C 468.657,432.786 469.422,436.133 470.111,439.351 C 470.800,442.569 472.005,445.448 472.788,445.749 C 476.242,447.075 506.030,438.674 523.500,431.448 C 556.909,417.628 594.891,395.732 632.500,368.609 C 715.049,309.077 785.237,245.055 815.156,202 C 822.366,191.624 831,176.247 831,173.782 C 831,172.385 818.394,164 816.294,164 C 815.823,164 813.714,167.488 811.606,171.750 C 791.275,212.861 729.545,274.328 643.500,339.139 C 578.146,388.365 515.324,421.929 475.234,429.038 ZM 476.288,456.581 C 473.136,457.432 491.671,500 495.194,500 C 498.222,500 509,496.738 509,495.821 C 509,495.353 507.591,492.473 505.869,489.421 C 503.224,484.734 502.908,483.499 503.835,481.464 C 505.121,478.641 509.386,477.246 511.463,478.970 C 512.254,479.626 514.256,482.564 515.912,485.499 C 517.568,488.434 519.371,491.111 519.916,491.448 C 520.864,492.034 534.110,487.289 538.688,484.723 C 539.417,484.314 540.146,483.905 540.875,483.496 C 539.729,481.679 538.584,479.862 537.438,478.045 C 533.518,471.828 533.163,469.067 535.960,466.536 C 539.129,463.668 542.050,465.290 546.797,472.550 C 548.229,474.741 549.662,476.931 551.094,479.122 C 554.328,477.394 557.563,475.666 560.797,473.938 C 566.134,471.087 570.907,468.381 571.404,467.924 C 571.925,467.445 570.761,464.848 568.654,461.788 C 564.335,455.516 563.959,451.728 567.433,449.452 C 570.788,447.254 572.992,448.625 578.033,456.048 C 579.391,458.048 580.750,460.049 582.108,462.049 C 583.369,461.291 584.629,460.533 585.890,459.775 C 587.970,458.524 593.788,455.025 598.819,452 C 603.850,448.975 607.974,446.143 607.983,445.707 C 607.992,445.271 606.200,442.530 604,439.616 C 599.586,433.770 598.988,430.226 601.960,427.536 C 605.005,424.781 608.245,426.257 612.104,432.156 C 613.972,435.011 616.217,437.785 617.093,438.319 C 618.326,439.071 622.101,436.989 633.818,429.090 C 642.141,423.479 649.232,418.434 649.575,417.879 C 649.918,417.324 648.354,414.240 646.099,411.026 C 640.390,402.888 640.791,398 647.167,398 C 649.400,398 650.881,399.252 654.847,404.491 C 656.485,406.655 658.122,408.818 659.760,410.982 C 665.620,406.808 671.481,402.633 677.341,398.459 C 687.010,391.572 695.135,385.590 695.397,385.166 C 695.659,384.742 693.652,381.526 690.937,378.018 C 688.222,374.510 686,371.145 686,370.542 C 686,367.975 689.209,365 691.977,365 C 694.345,365 695.666,366.124 699.613,371.500 C 702.238,375.075 704.568,378 704.791,378 C 705.086,378 736.677,354.029 739.911,351.351 C 740.137,351.164 738.523,348.871 736.323,346.255 C 734.123,343.639 731.800,340.517 731.161,339.315 C 729.537,336.260 731.242,332.228 734.505,331.409 C 737.521,330.652 739.477,332.158 744.670,339.232 C 746.595,341.854 748.486,344 748.872,344 C 749.368,344 777.229,321.762 780.767,318.542 C 780.914,318.408 778.777,315.474 776.017,312.022 C 769.433,303.786 769.466,299 776.105,299 C 778.159,299 780.100,300.461 784.174,305.075 C 785.962,307.100 787.749,309.124 789.537,311.149 C 793.449,307.761 797.360,304.373 801.272,300.985 C 808.434,294.782 812.739,290.369 812.318,289.661 C 811.939,289.023 809.880,286.409 807.743,283.852 C 804.633,280.131 803.922,278.538 804.179,275.870 C 804.433,273.231 805.101,272.326 807.382,271.529 C 810.107,270.576 810.569,270.859 815.882,276.741 C 817.755,278.814 819.627,280.888 821.500,282.961 C 824.583,280.105 827.667,277.248 830.750,274.392 C 835.838,269.679 840,265.483 840,265.067 C 840,264.651 837.750,261.740 835,258.597 C 829.785,252.638 829.108,250.603 831.328,247.566 C 833.920,244.021 837.815,245.284 843.367,251.468 C 845.078,253.374 846.789,255.279 848.500,257.185 C 851,254.302 853.500,251.419 856,248.536 C 860.125,243.779 863.659,239.437 863.852,238.888 C 864.045,238.339 861.908,235.250 859.102,232.024 C 853.655,225.762 853.030,223.730 855.655,220.829 C 858.437,217.755 861.371,218.620 866.403,224 C 868.975,226.750 871.399,228.990 871.790,228.979 C 872.648,228.954 881,216.391 881,215.126 C 881,213.640 857.942,191.935 849.221,185.211 C 846.502,183.115 843.783,181.018 841.064,178.922 C 839.845,181.352 838.625,183.781 837.406,186.211 C 826.789,207.367 802.789,237.322 773.872,265.508 C 721.981,316.086 645.873,375.693 589.826,409.651 C 553.024,431.949 510.114,450.369 484,455.080 C 480.425,455.725 476.955,456.401 476.288,456.581 ZM 505.250,508.634 C 502.362,509.463 500,510.475 500,510.883 C 500,511.728 509.593,525.890 515.489,533.750 C 520.216,540.052 520.243,540.054 536.525,536.068 C 562.762,529.644 592.972,516.740 630.869,495.767 C 687.276,464.551 744.820,423.708 800.967,375.040 C 839.995,341.211 873.141,307.688 891.973,283 C 898.620,274.286 910,256.252 910,254.432 C 910,253.199 895.510,231.857 891.848,227.696 C 890.732,226.428 889.616,225.161 888.500,223.893 C 886.899,226.285 885.298,228.677 883.697,231.069 C 882.096,233.461 880.494,235.852 878.893,238.244 C 880.236,239.837 881.580,241.431 882.923,243.024 C 888.779,249.969 889.670,252.328 887.619,255.459 C 885.062,259.362 882.300,258.636 876.602,252.560 C 874.901,250.747 873.201,248.933 871.500,247.120 C 868.917,250.081 866.333,253.042 863.750,256.003 C 859.487,260.888 856,265.156 856,265.487 C 856,265.818 858.250,268.792 861,272.096 C 863.750,275.400 866,278.832 866,279.723 C 866,282.109 863.006,285 860.536,285 C 857.864,285 856.346,283.774 851.532,277.735 C 850.266,276.147 849.001,274.558 847.735,272.970 C 844.696,275.885 841.656,278.800 838.617,281.715 C 833.602,286.525 829.355,290.792 829.178,291.197 C 829.001,291.602 831.138,294.754 833.928,298.202 C 839.322,304.869 839.999,307.239 837.345,310.171 C 834.292,313.544 831.448,312.449 825.859,305.750 C 822.992,302.312 820.266,299.616 819.802,299.757 C 818.438,300.172 797,319.221 797,320.018 C 797,320.418 799.250,323.560 802,327 C 807.598,334.004 808.236,337.144 804.549,339.560 C 801.021,341.872 798.991,340.789 793.117,333.459 C 789.831,329.358 787.458,327.217 786.712,327.678 C 786.060,328.081 780.561,332.480 774.492,337.455 C 768.423,342.430 761.700,347.895 759.554,349.600 C 758.253,350.634 756.953,351.667 755.652,352.701 C 757.543,355.118 759.435,357.536 761.326,359.953 C 767.569,367.932 768.334,371.079 764.623,373.511 C 761.219,375.741 758.512,374.156 752.503,366.414 C 749.755,362.873 747,360.170 746.381,360.407 C 744.394,361.169 712,386.088 712,386.854 C 712,387.260 714.700,391.114 718,395.418 C 721.300,399.722 724,403.763 724,404.399 C 724,406.729 720.823,410 718.560,410 C 716.071,410 711.060,405.070 706.413,398.048 C 704.940,395.822 703.325,394 702.824,394 C 701.416,394 667,419.028 667,420.052 C 667,420.550 669.250,424.041 672,427.810 C 678.631,436.899 678.568,442 671.824,442 C 669.538,442 668.052,440.677 663.403,434.500 C 660.298,430.375 657.389,427 656.938,427 C 655.434,427 624.496,448.359 624.760,449.215 C 624.903,449.679 627.040,452.835 629.510,456.229 C 634.437,463.001 635.011,465.776 632.040,468.464 C 628.814,471.384 625.774,469.723 620.097,461.943 C 617.254,458.046 614.581,455.002 614.159,455.179 C 611.434,456.319 589.001,470.640 589.001,471.240 C 589.001,471.647 591.009,474.915 593.464,478.501 C 597.830,484.879 598.172,486.583 595.722,489.750 C 595.190,490.438 593.451,491 591.857,491 C 589.535,491 588.317,490.072 585.729,486.332 C 583.953,483.765 581.568,480.550 580.429,479.189 C 579.739,478.364 579.047,477.539 578.357,476.714 C 574.969,478.512 571.582,480.309 568.194,482.107 C 562.604,485.073 558.023,487.975 558.015,488.556 C 558.007,489.137 559.158,491.162 560.575,493.056 C 565.655,499.849 566.332,501.844 564.504,504.635 C 563.239,506.565 562.174,507.049 559.718,506.809 C 557.174,506.560 555.808,505.429 552.705,501 C 550.586,497.975 548.508,494.898 548.088,494.163 C 547.489,493.115 545.131,493.764 537.182,497.163 C 531.604,499.548 527.031,501.877 527.020,502.337 C 527.009,502.797 528.406,505.132 530.125,507.525 C 534.695,513.888 533.932,520 528.569,520 C 525.604,520 523.992,518.509 519.562,511.669 C 515.381,505.212 516.409,505.430 505.250,508.634 ZM 529.701,548.704 C 528.727,549.282 530.026,551.069 535.906,557.250 C 541.399,563.024 542.645,563.131 557.077,559.061 C 601.192,546.621 648.758,522.838 707,484.099 C 800.120,422.161 892.161,338.040 919.947,289.477 C 921.347,287.029 922.749,284.583 924.149,282.135 C 922.870,279.394 921.591,276.653 920.312,273.913 C 919.033,271.173 917.753,268.432 916.474,265.692 C 915.169,267.827 913.864,269.961 912.559,272.096 C 901.444,290.276 885.052,309.929 860.500,334.512 C 775.142,419.978 658.225,501.932 574.622,534.902 C 558.951,541.082 542.794,546.217 535,547.494 C 532.525,547.899 530.140,548.443 529.701,548.704 ZM 557.750,570.040 C 554.588,570.743 552,571.431 552,571.568 C 552,572.341 566.677,583.147 576.508,589.612 C 608.202,610.454 647.456,623.848 686.255,627.062 C 747.334,632.122 810.055,611.252 858.559,569.729 C 900.824,533.547 930.469,482.066 940.461,427.500 C 946.250,395.888 946.382,370.306 940.917,339 C 937.978,322.161 930.843,296 929.191,296 C 928.793,296 927.040,298.386 925.296,301.302 C 913.260,321.426 883.512,354.700 850.075,385.442 C 770.701,458.419 676.294,523.097 604.101,553.960 C 589.003,560.414 567.507,567.872 557.750,570.040 Z" fill="currentColor" stroke="none"/>
  <path d="M 645.800,168.200 C 647.493,169.893 647.291,174.513 645.457,176.035 C 644.609,176.739 638.871,178.962 632.707,180.975 C 590.915,194.620 555.678,222.736 530.536,262.500 C 524.631,271.839 515.608,289.817 512.469,298.500 C 509.446,306.862 505.974,309.096 501.829,305.345 C 499.308,303.063 499.484,301.670 503.575,291.524 C 519.895,251.050 548.307,215.930 583.500,192.729 C 595.678,184.701 613.988,175.852 628.453,171.005 C 641.195,166.736 643.899,166.299 645.800,168.200 Z" fill="currentColor" stroke="none"/>
</svg>
