<svg xmlns="http://www.w3.org/2000/svg" viewBox="0 0 24 24" fill="none" stroke="currentColor" stroke-width="1.5" stroke-linecap="round" stroke-linejoin="round">
  <!-- Wicketkeeper glove (left side) -->
  <!-- Palm -->
  <path d="M3 14c0-1.5.5-3 1.5-4l1-1c.5-.5 1.2-.5 1.7 0l.3.3" fill="currentColor" fill-opacity="0.06"/>
  <path d="M3 14c0-1.5.5-3 1.5-4l1-1c.5-.5 1.2-.5 1.7 0l.3.3"/>
  <!-- Glove body -->
  <path d="M3 14v3c0 1.7 1.3 3 3 3h2c1.1 0 2-.9 2-2v-5" fill="currentColor" fill-opacity="0.06"/>
  <path d="M3 14v3c0 1.7 1.3 3 3 3h2c1.1 0 2-.9 2-2v-5"/>
  <!-- Fingers -->
  <path d="M7.5 9.3V6.5c0-.6.4-1 1-1s1 .4 1 1V10"/>
  <path d="M9.5 6.5V5c0-.6.4-1 1-1s1 .4 1 1v5.5"/>
  <path d="M10 13v-3.5"/>
  <!-- Webbing between thumb and index -->
  <path d="M6.5 9.3c.3-.3.6-.3 1 0" stroke-opacity="0.5" stroke-width="1"/>
  <!-- Bat (right side, angled) -->
  <path d="M15 22l1.5-1.5"/>
  <path d="M16.5 20.5l1.2-1.2"/>
  <!-- Bat blade -->
  <path d="M17.7 19.3l4-4c.4-.4.7-.9.7-1.5v-.1c0-.3-.2-.5-.5-.5h-.1c-.6 0-1.1.3-1.5.7l-4 4z" fill="currentColor" fill-opacity="0.06"/>
  <path d="M17.7 19.3l4-4c.4-.4.7-.9.7-1.5v-.1c0-.3-.2-.5-.5-.5h-.1c-.6 0-1.1.3-1.5.7l-4 4z"/>
</svg>
