<svg xmlns="http://www.w3.org/2000/svg" viewBox="470 87 470 596">
  <!-- Wicketkeeper glove - vectorized silhouette -->
  <path d="M 473.347,317.500 C 475.464,309.387 479.893,301.884 486.085,295.918 C 491.018,291.165 493.155,287.797 500.361,273.414 C 530.522,213.212 568.563,169.114 619.500,135.303 C 651.750,113.896 659.697,110.351 673.335,111.286 C 683.075,111.954 693.149,116.515 700.171,123.437 C 701.708,124.952 703.244,126.467 704.781,127.982 C 704.984,126.902 705.187,125.821 705.390,124.741 C 706.518,118.742 711.889,109.015 716.712,104.235 C 726.065,94.965 739.737,90.101 752.432,91.527 C 785.212,95.209 827.494,108.377 852.478,122.682 C 875.327,135.765 897.445,155.460 909.855,173.771 C 918.264,186.179 926.225,203.084 929.966,216.480 C 935.813,237.417 936.001,241.226 935.997,338.801 C 935.995,392.950 935.583,431.979 934.940,439 C 931.690,474.483 919.670,506.243 899.176,533.500 C 892.494,542.387 882.336,553.300 877.044,557.277 C 875.892,558.143 874.739,559.008 873.587,559.874 C 875.143,561.323 876.698,562.771 878.254,564.220 C 886.946,572.314 886.891,571.985 887.069,617.099 C 887.222,655.900 887.185,656.699 884.999,661.780 C 882.276,668.110 876.038,674.050 869.441,676.594 C 864.687,678.427 860.267,678.500 753,678.500 C 628.059,678.500 638.432,679.126 629.674,671.053 C 627.228,668.798 624.163,664.602 622.863,661.727 C 620.547,656.604 620.493,655.806 620.174,621.500 C 619.764,577.463 620.365,573.635 629.045,564.955 C 630.358,563.642 631.670,562.330 632.983,561.017 C 630.569,559.806 628.156,558.595 625.742,557.384 C 609.761,549.368 591.288,533.818 580.093,518.962 C 576.960,514.805 568.370,501.301 561.005,488.952 C 553.640,476.603 531.571,439.918 511.962,407.429 C 492.353,374.940 475.530,346.140 474.577,343.429 C 472.300,336.953 471.680,323.887 473.347,317.500 ZM 709.870,534 C 704.978,485.912 686.636,440.440 657.634,404.500 C 650.016,395.060 637.651,382 636.330,382 C 635.820,382 634.843,383.544 634.161,385.431 C 630.623,395.215 617.418,399.581 608.242,394.001 C 606.310,392.826 596.102,378.761 579.458,354.340 C 545.625,304.699 545.731,304.850 541.358,301.010 C 539.286,299.191 535.096,296.532 532.046,295.101 C 527.292,292.871 525.144,292.500 517,292.500 C 508.825,292.500 506.716,292.867 501.880,295.135 C 494.239,298.718 488.941,303.758 484.957,311.232 C 482.144,316.509 481.548,318.801 481.184,325.728 C 480.946,330.253 481.267,336.005 481.898,338.510 C 482.598,341.291 493.419,360.285 509.684,387.282 C 524.336,411.602 546.877,449.050 559.775,470.500 C 572.673,491.950 585.382,512.200 588.016,515.500 C 601.967,532.979 623.404,549.118 640.472,554.990 C 645.852,556.841 648.867,557 678.657,557 C 689.438,557 700.219,557 711,557 C 710.956,554.583 710.911,552.167 710.867,549.750 C 710.794,545.763 710.346,538.675 709.870,534 ZM 629.357,139.015 C 627.984,139.038 604.974,155.792 594.730,164.227 C 582.626,174.193 560.773,196.608 550.104,210 C 535.574,228.238 520.470,252.105 509.093,274.802 C 507.372,278.236 505.651,281.670 503.930,285.104 C 505.192,284.898 506.453,284.691 507.715,284.485 C 509.797,284.144 512.666,283.650 514.091,283.388 C 518.926,282.498 530.380,284.980 537.500,288.462 C 545.386,292.318 551.426,298.067 558.285,308.242 C 559.800,310.489 561.314,312.736 562.829,314.983 C 565.370,310.736 567.910,306.489 570.451,302.242 C 583.595,280.268 599.347,261.035 617,245.401 C 620.333,242.449 623.667,239.497 627,236.545 C 627.002,222.704 627.004,208.863 627.006,195.022 C 627.011,157.256 627.543,145.808 629.527,140.750 C 629.905,139.788 629.828,139.007 629.357,139.015 ZM 627.084,275.258 C 626.889,266.177 626.695,257.098 626.500,248.017 C 623.942,250.351 621.385,252.685 618.827,255.019 C 610.260,262.837 598.296,276.461 589.503,288.412 C 582.893,297.396 570.192,318.387 569.360,321.703 C 568.935,323.396 573.341,330.564 588.417,352.703 C 614.018,390.299 612.133,388 617.356,388 C 620.803,388 622.184,387.417 624.523,384.976 C 625.489,383.968 626.454,382.960 627.420,381.952 C 627.461,368.710 627.503,355.468 627.544,342.226 C 627.612,320.377 627.405,290.241 627.084,275.258 ZM 796.044,598.914 C 794.800,594.810 792.059,591.200 788.529,589.018 C 785.328,587.040 783.746,587 707.132,587 C 681.088,587 655.044,587 629,587 C 629,597.333 629,607.667 629,618 C 629,628.333 629,638.667 629,649 C 654.583,648.993 680.167,648.985 705.750,648.978 C 778.082,648.957 782.730,648.850 786.500,647.119 C 795.382,643.040 796.926,638.632 796.870,617.500 C 796.847,608.700 796.475,600.337 796.044,598.914 ZM 877.120,576.459 C 874.893,571.557 870.197,567.426 865.205,565.980 C 862.638,565.236 827.843,564.997 751.927,565.203 C 715.403,565.302 678.877,565.401 642.353,565.500 C 640.948,566.430 639.543,567.360 638.138,568.290 C 635.819,569.824 633.043,572.524 631.969,574.290 C 631.318,575.360 630.668,576.430 630.017,577.500 C 655.931,577.667 681.844,577.833 707.758,578 C 784.143,578.491 785.579,578.537 790,580.603 C 795.361,583.109 799.419,587.013 802.351,592.487 C 804.355,596.228 804.500,597.924 804.500,617.527 C 804.500,638.113 804.446,638.657 801.945,643.517 C 799.070,649.104 792.793,654.408 787.225,655.954 C 784.809,656.625 756.536,656.990 706.750,656.994 C 664.537,656.997 630,657.369 630,657.820 C 630,659.646 637.595,667.351 640.657,668.630 C 643.365,669.762 663.059,670 753.903,670 C 829.016,670 864.762,669.664 866.685,668.939 C 870.503,667.500 875.936,662.204 877.619,658.282 C 878.713,655.734 878.995,647.309 878.978,617.782 C 878.958,583.775 878.794,580.145 877.120,576.459 ZM 925.400,233.500 C 918.434,194.275 895.385,160.452 859.500,136.797 C 850.076,130.585 826.326,118.341 825.432,119.235 C 825.147,119.520 828.471,123.356 832.821,127.758 C 846.028,141.126 855.007,155.505 860.562,172.185 C 865.792,187.889 865.927,190.205 865.965,264.215 C 865.999,331.064 865.947,332.957 864.072,333.961 C 861.538,335.317 859.103,334.305 858.493,331.640 C 858.223,330.463 857.878,298.450 857.726,260.500 C 857.634,237.500 857.541,214.500 857.449,191.500 C 856.580,188.330 855.712,185.159 854.843,181.989 C 847.267,154.343 829.750,131.285 805.319,116.798 C 797.176,111.969 782.600,105.634 780.922,106.193 C 780.404,106.366 781.163,108.247 782.608,110.374 C 784.053,112.501 786.195,116.775 787.368,119.871 C 789.481,125.449 789.503,126.343 789.780,218.862 C 789.988,288.213 789.763,312.581 788.907,313.612 C 787.473,315.340 783.393,315.425 782.309,313.750 C 781.864,313.062 781.275,270.200 781,218.500 C 780.833,187.167 780.667,155.833 780.500,124.500 C 779.680,122.833 778.859,121.167 778.039,119.500 C 774.359,112.024 766.606,104.745 759.469,102.067 C 754.668,100.265 751.934,99.895 745.500,100.174 C 732.204,100.750 722.602,106.970 716.792,118.770 C 715.695,120.999 714.597,123.228 713.500,125.457 C 713.410,156.605 713.320,187.752 713.230,218.900 C 713.032,287.226 712.652,312.714 711.815,313.722 C 711.186,314.480 709.508,314.966 708.086,314.801 C 705.801,314.535 705.420,313.919 704.808,309.500 C 704.427,306.750 704.330,293.925 704.591,281 C 704.852,268.075 704.705,232.075 704.263,201 C 703.488,146.482 703.385,144.338 701.342,139.878 C 696.922,130.227 688.272,123.053 677.828,120.377 C 662.581,116.471 645.545,124.929 638.661,139.824 C 637.941,141.383 637.220,142.941 636.500,144.500 C 636.411,182.094 636.322,219.689 636.233,257.283 C 636.144,294.877 636.055,332.472 635.966,370.066 C 639.017,372.970 642.069,375.873 645.120,378.777 C 675.382,407.576 697.826,445.593 709.423,487.702 C 713.667,503.112 716.440,518.348 717.941,534.500 C 718.554,541.100 719.303,548.872 719.603,551.770 C 719.785,553.527 719.967,555.282 720.149,557.039 C 743.708,556.949 767.265,556.860 790.824,556.770 C 814.383,556.680 837.941,556.590 861.500,556.500 C 863.113,555.706 864.726,554.912 866.339,554.118 C 876.484,549.123 894.787,527.564 905.916,507.500 C 915.559,490.115 923.538,465.270 925.978,445.026 C 926.615,439.745 926.966,399.804 926.910,339.026 C 926.837,259.481 926.559,240.025 925.400,233.500 Z" fill="currentColor" stroke="none"/>
  <path d="M 820.166,590.234 C 821.829,588.571 823.538,588.680 825.429,590.571 C 826.588,591.730 826.996,594.158 826.985,599.821 C 826.967,608.832 826.303,610.277 822.391,609.830 C 821.427,609.720 820.464,609.610 819.500,609.500 C 819.405,606.495 819.311,603.489 819.216,600.484 C 819.022,594.327 819.323,591.077 820.166,590.234 Z" fill="currentColor" stroke="none"/>
  <path d="M 819.633,625.700 C 820.748,624.585 824.488,624.888 825.800,626.200 C 826.538,626.938 827,630.551 827,635.578 C 827,644.450 826,646.422 821.805,645.827 C 819.605,645.515 819.487,645.062 819.216,635.950 C 819.060,630.698 819.248,626.085 819.633,625.700 Z" fill="currentColor" stroke="none"/>
</svg>
