<svg xmlns="http://www.w3.org/2000/svg" viewBox="0 0 512 512" width="512" height="512">
  <defs>
    <linearGradient id="ai-blade1" x1="0%" y1="0%" x2="100%" y2="100%">
      <stop offset="0%" stop-color="#34D68A"/>
      <stop offset="100%" stop-color="#2DB87A"/>
    </linearGradient>
    <linearGradient id="ai-blade2" x1="100%" y1="0%" x2="0%" y2="100%">
      <stop offset="0%" stop-color="#60A5FA"/>
      <stop offset="100%" stop-color="#3B82F6"/>
    </linearGradient>
    <linearGradient id="ai-blade3" x1="0%" y1="100%" x2="100%" y2="0%">
      <stop offset="0%" stop-color="#2DD4BF"/>
      <stop offset="100%" stop-color="#14B8A6"/>
    </linearGradient>
    <linearGradient id="ai-blade4" x1="100%" y1="100%" x2="0%" y2="0%">
      <stop offset="0%" stop-color="#F59E6B"/>
      <stop offset="100%" stop-color="#E8734A"/>
    </linearGradient>
  </defs>
  <!-- Rounded rectangle background -->
  <rect width="512" height="512" rx="100" ry="100" fill="#0F1929"/>
  <!-- Swirl icon centered at (256, 256) -->
  <g transform="translate(256, 256)">
    <path d="M0,0 C0,-36 -16,-64 -32,-84 C-48,-104 -68,-108 -76,-92 C-84,-76 -72,-52 -52,-32 C-32,-12 -16,-4 0,0Z" fill="url(#ai-blade1)" opacity="0.95"/>
    <path d="M0,0 C36,0 64,-16 84,-32 C104,-48 108,-68 92,-76 C76,-84 52,-72 32,-52 C12,-32 4,-16 0,0Z" fill="url(#ai-blade2)" opacity="0.95"/>
    <path d="M0,0 C-36,0 -64,16 -84,32 C-104,48 -108,68 -92,76 C-76,84 -52,72 -32,52 C-12,32 -4,16 0,0Z" fill="url(#ai-blade3)" opacity="0.95"/>
    <path d="M0,0 C0,36 16,64 32,84 C48,104 68,108 76,92 C84,76 72,52 52,32 C32,12 16,4 0,0Z" fill="url(#ai-blade4)" opacity="0.95"/>
    <circle cx="0" cy="0" r="7" fill="white" opacity="0.9"/>
  </g>
</svg>
