<svg xmlns="http://www.w3.org/2000/svg" viewBox="0 0 32 32" width="32" height="32">
  <defs>
    <linearGradient id="fv-b1" x1="0%" y1="0%" x2="100%" y2="100%">
      <stop offset="0%" stop-color="#34D68A"/>
      <stop offset="100%" stop-color="#2DB87A"/>
    </linearGradient>
    <linearGradient id="fv-b2" x1="100%" y1="0%" x2="0%" y2="100%">
      <stop offset="0%" stop-color="#60A5FA"/>
      <stop offset="100%" stop-color="#3B82F6"/>
    </linearGradient>
    <linearGradient id="fv-b3" x1="0%" y1="100%" x2="100%" y2="0%">
      <stop offset="0%" stop-color="#2DD4BF"/>
      <stop offset="100%" stop-color="#14B8A6"/>
    </linearGradient>
    <linearGradient id="fv-b4" x1="100%" y1="100%" x2="0%" y2="0%">
      <stop offset="0%" stop-color="#F59E6B"/>
      <stop offset="100%" stop-color="#E8734A"/>
    </linearGradient>
  </defs>
  <g transform="translate(16, 16)">
    <!-- Simplified blades for small size -->
    <path d="M0,0 C0,-5 -2,-9 -4.5,-12 C-7,-15 -10,-15.5 -11,-13 C-12,-10.5 -10.5,-7 -7.5,-4.5 C-4.5,-2 -2,-0.5 0,0Z" fill="url(#fv-b1)"/>
    <path d="M0,0 C5,0 9,-2 12,-4.5 C15,-7 15.5,-10 13,-11 C10.5,-12 7,-10.5 4.5,-7.5 C2,-4.5 0.5,-2 0,0Z" fill="url(#fv-b2)"/>
    <path d="M0,0 C-5,0 -9,2 -12,4.5 C-15,7 -15.5,10 -13,11 C-10.5,12 -7,10.5 -4.5,7.5 C-2,4.5 -0.5,2 0,0Z" fill="url(#fv-b3)"/>
    <path d="M0,0 C0,5 2,9 4.5,12 C7,15 10,15.5 11,13 C12,10.5 10.5,7 7.5,4.5 C4.5,2 2,0.5 0,0Z" fill="url(#fv-b4)"/>
    <circle cx="0" cy="0" r="1.2" fill="white" opacity="0.9"/>
  </g>
</svg>
