<svg xmlns="http://www.w3.org/2000/svg" viewBox="0 0 280 60" width="280" height="60">
  <defs>
    <linearGradient id="hd-blade1" x1="0%" y1="0%" x2="100%" y2="100%">
      <stop offset="0%" stop-color="#34D68A"/>
      <stop offset="100%" stop-color="#2DB87A"/>
    </linearGradient>
    <linearGradient id="hd-blade2" x1="100%" y1="0%" x2="0%" y2="100%">
      <stop offset="0%" stop-color="#60A5FA"/>
      <stop offset="100%" stop-color="#3B82F6"/>
    </linearGradient>
    <linearGradient id="hd-blade3" x1="0%" y1="100%" x2="100%" y2="0%">
      <stop offset="0%" stop-color="#2DD4BF"/>
      <stop offset="100%" stop-color="#14B8A6"/>
    </linearGradient>
    <linearGradient id="hd-blade4" x1="100%" y1="100%" x2="0%" y2="0%">
      <stop offset="0%" stop-color="#F59E6B"/>
      <stop offset="100%" stop-color="#E8734A"/>
    </linearGradient>
  </defs>
  <!-- Swirl icon at left, centered at (30, 30) -->
  <g transform="translate(30, 30)">
    <path d="M0,0 C0,-10.5 -4.7,-18.7 -9.3,-24.5 C-14,-30.3 -19.8,-31.5 -22.2,-26.8 C-24.5,-22.2 -21,-15.2 -15.2,-9.3 C-9.3,-3.5 -4.7,-1.2 0,0Z" fill="url(#hd-blade1)" opacity="0.95"/>
    <path d="M0,0 C10.5,0 18.7,-4.7 24.5,-9.3 C30.3,-14 31.5,-19.8 26.8,-22.2 C22.2,-24.5 15.2,-21 9.3,-15.2 C3.5,-9.3 1.2,-4.7 0,0Z" fill="url(#hd-blade2)" opacity="0.95"/>
    <path d="M0,0 C-10.5,0 -18.7,4.7 -24.5,9.3 C-30.3,14 -31.5,19.8 -26.8,22.2 C-22.2,24.5 -15.2,21 -9.3,15.2 C-3.5,9.3 -1.2,4.7 0,0Z" fill="url(#hd-blade3)" opacity="0.95"/>
    <path d="M0,0 C0,10.5 4.7,18.7 9.3,24.5 C14,30.3 19.8,31.5 22.2,26.8 C24.5,22.2 21,15.2 15.2,9.3 C9.3,3.5 4.7,1.2 0,0Z" fill="url(#hd-blade4)" opacity="0.95"/>
    <circle cx="0" cy="0" r="2.5" fill="white" opacity="0.9"/>
  </g>
  <!-- "StatSledge" text - white for dark backgrounds, vertically centered -->
  <text x="72" y="36" fill="white" font-family="'Nunito Sans', 'Poppins', 'Segoe UI', sans-serif" font-size="22" letter-spacing="0.5" dominant-baseline="middle">
    <tspan font-weight="400">Stat</tspan><tspan font-weight="700">Sledge</tspan>
  </text>
</svg>
