<svg xmlns="http://www.w3.org/2000/svg" viewBox="0 0 120 120" width="120" height="120">
  <defs>
    <!-- Blade gradients for depth -->
    <linearGradient id="blade1Grad" x1="0%" y1="0%" x2="100%" y2="100%">
      <stop offset="0%" stop-color="#34D68A"/>
      <stop offset="100%" stop-color="#2DB87A"/>
    </linearGradient>
    <linearGradient id="blade2Grad" x1="100%" y1="0%" x2="0%" y2="100%">
      <stop offset="0%" stop-color="#60A5FA"/>
      <stop offset="100%" stop-color="#3B82F6"/>
    </linearGradient>
    <linearGradient id="blade3Grad" x1="0%" y1="100%" x2="100%" y2="0%">
      <stop offset="0%" stop-color="#2DD4BF"/>
      <stop offset="100%" stop-color="#14B8A6"/>
    </linearGradient>
    <linearGradient id="blade4Grad" x1="100%" y1="100%" x2="0%" y2="0%">
      <stop offset="0%" stop-color="#F59E6B"/>
      <stop offset="100%" stop-color="#E8734A"/>
    </linearGradient>
  </defs>
  <!-- Blade 1: Emerald green (top-left, curving clockwise) -->
  <path d="M60,60 C60,42 52,28 44,18 C36,8 26,6 22,14 C18,22 24,34 34,44 C44,54 52,58 60,60Z" fill="url(#blade1Grad)" opacity="0.95"/>
  <!-- Blade 2: Blue (top-right, curving clockwise) -->
  <path d="M60,60 C78,60 92,52 102,44 C112,36 114,26 106,22 C98,18 86,24 76,34 C66,44 62,52 60,60Z" fill="url(#blade2Grad)" opacity="0.95"/>
  <!-- Blade 3: Teal (bottom-left, curving clockwise) -->
  <path d="M60,60 C42,60 28,68 18,76 C8,84 6,94 14,98 C22,102 34,96 44,86 C54,76 58,68 60,60Z" fill="url(#blade3Grad)" opacity="0.95"/>
  <!-- Blade 4: Orange/coral (bottom-right, curving clockwise) -->
  <path d="M60,60 C60,78 68,92 76,102 C84,112 94,114 98,106 C102,98 96,86 86,76 C76,66 68,62 60,60Z" fill="url(#blade4Grad)" opacity="0.95"/>
  <!-- Center dot for polish -->
  <circle cx="60" cy="60" r="4" fill="white" opacity="0.9"/>
</svg>
